<svg xmlns="http://www.w3.org/2000/svg" xmlns:xlink="http://www.w3.org/1999/xlink" width="1920" zoomAndPan="magnify" viewBox="0 0 1440 374.999991" height="500" preserveAspectRatio="xMidYMid meet" version="1.0"><defs><clipPath id="5e4ce8a87c"><path d="M 1296 26.785156 L 1426 26.785156 L 1426 61 L 1296 61 Z M 1296 26.785156 " clip-rule="nonzero"/></clipPath><clipPath id="bdc65b3b7e"><path d="M 0 238 L 379 238 L 379 251.925781 L 0 251.925781 Z M 0 238 " clip-rule="nonzero"/></clipPath><clipPath id="871f87e294"><path d="M 919 327 L 1049 327 L 1049 346.746094 L 919 346.746094 Z M 919 327 " clip-rule="nonzero"/></clipPath></defs><rect x="-144" width="1728" fill="#ffffff" y="-37.499999" height="449.999989" fill-opacity="1"/><rect x="-144" width="1728" fill="#ffffff" y="-37.499999" height="449.999989" fill-opacity="1"/><path fill="#23387a" d="M -0.839844 137.359375 L 378.253906 137.359375 L 378.253906 149.824219 L -0.839844 149.824219 Z M -0.839844 137.359375 " fill-opacity="1" fill-rule="nonzero"/><path fill="#23387a" d="M 528.792969 48.632812 L 787.097656 48.632812 L 787.097656 61.097656 L 528.792969 61.097656 Z M 528.792969 48.632812 " fill-opacity="1" fill-rule="nonzero"/><path fill="#23387a" d="M 371.882812 139.078125 L 528.714844 48.554688 L 534.9375 59.351562 L 378.128906 149.875 Z M 371.882812 139.078125 " fill-opacity="1" fill-rule="nonzero"/><g clip-path="url(#5e4ce8a87c)"><path fill="#23387a" d="M 1296.621094 52.070312 L 1416.328125 -83.789062 L 1425.660156 -75.542969 L 1305.980469 60.289062 Z M 1296.621094 52.070312 " fill-opacity="1" fill-rule="nonzero"/></g><path fill="#23387a" d="M 334.375 238.726562 L 1400.519531 238.726562 L 1400.519531 251.167969 L 334.375 251.167969 Z M 334.375 238.726562 " fill-opacity="1" fill-rule="nonzero"/><path fill="#23387a" d="M 669.464844 149.671875 L 519.535156 251.191406 L 512.554688 240.875 L 662.484375 139.328125 Z M 669.464844 149.671875 " fill-opacity="1" fill-rule="nonzero"/><g clip-path="url(#bdc65b3b7e)"><path fill="#23387a" d="M -0.839844 238.726562 L 378.253906 238.726562 L 378.253906 251.167969 L -0.839844 251.167969 Z M -0.839844 238.726562 " fill-opacity="1" fill-rule="nonzero"/></g><path fill="#23387a" d="M 528.765625 327.425781 L 929.082031 327.425781 L 929.082031 339.894531 L 528.765625 339.894531 Z M 528.765625 327.425781 " fill-opacity="1" fill-rule="nonzero"/><path fill="#23387a" d="M 861.859375 143.300781 L 1262.175781 143.300781 L 1262.175781 155.738281 L 861.859375 155.738281 Z M 861.859375 143.300781 " fill-opacity="1" fill-rule="nonzero"/><path fill="#23387a" d="M 378.128906 238.601562 L 534.9375 329.097656 L 528.691406 339.894531 L 371.882812 249.371094 Z M 378.128906 238.601562 " fill-opacity="1" fill-rule="nonzero"/><g clip-path="url(#871f87e294)"><path fill="#23387a" d="M 929.183594 327.453125 L 1048.867188 463.3125 L 1039.507812 471.527344 L 919.828125 335.695312 Z M 929.183594 327.453125 " fill-opacity="1" fill-rule="nonzero"/></g><path fill="#23387a" d="M 878.652344 47.847656 L 1306.285156 47.847656 L 1306.285156 60.3125 L 878.652344 60.3125 Z M 878.652344 47.847656 " fill-opacity="1" fill-rule="nonzero"/><path fill="#23387a" d="M 1413.089844 265.859375 C 1410.308594 265.859375 1407.628906 265.328125 1405.074219 264.265625 C 1402.519531 263.203125 1400.242188 261.683594 1398.296875 259.738281 C 1396.324219 257.765625 1394.832031 255.515625 1393.769531 252.960938 C 1392.707031 250.382812 1392.175781 247.726562 1392.175781 244.945312 C 1392.175781 242.164062 1392.707031 239.511719 1393.769531 236.957031 C 1394.832031 234.378906 1396.324219 232.128906 1398.296875 230.15625 C 1400.242188 228.207031 1402.519531 226.691406 1405.074219 225.628906 C 1407.628906 224.566406 1410.308594 224.035156 1413.089844 224.035156 C 1415.847656 224.035156 1418.527344 224.566406 1421.082031 225.628906 C 1423.636719 226.691406 1425.914062 228.207031 1427.863281 230.15625 C 1429.835938 232.128906 1431.351562 234.378906 1432.414062 236.957031 C 1433.476562 239.511719 1434.007812 242.164062 1434.007812 244.945312 C 1434.007812 247.726562 1433.476562 250.382812 1432.414062 252.960938 C 1431.351562 255.515625 1429.835938 257.765625 1427.863281 259.738281 C 1425.914062 261.683594 1423.636719 263.203125 1421.082031 264.265625 C 1418.527344 265.328125 1415.847656 265.859375 1413.089844 265.859375 Z M 1413.089844 265.859375 " fill-opacity="1" fill-rule="nonzero"/><path fill="#23387a" d="M 803.207031 75.789062 C 800.425781 75.789062 797.769531 75.257812 795.214844 74.195312 C 792.636719 73.132812 790.382812 71.617188 788.410156 69.644531 C 786.464844 67.695312 784.945312 65.421875 783.882812 62.867188 C 782.820312 60.3125 782.289062 57.632812 782.289062 54.878906 C 782.289062 52.09375 782.820312 49.414062 783.882812 46.863281 C 784.945312 44.308594 786.464844 42.03125 788.410156 40.085938 C 790.382812 38.113281 792.636719 36.59375 795.214844 35.558594 C 797.769531 34.496094 800.425781 33.964844 803.207031 33.964844 C 805.988281 33.964844 808.644531 34.496094 811.199219 35.558594 C 813.777344 36.59375 816.03125 38.113281 818.003906 40.085938 C 819.949219 42.03125 821.46875 44.308594 822.53125 46.863281 C 823.59375 49.414062 824.125 52.09375 824.125 54.878906 C 824.125 57.632812 823.59375 60.3125 822.53125 62.867188 C 821.46875 65.421875 819.949219 67.695312 818.003906 69.644531 C 816.03125 71.617188 813.777344 73.132812 811.199219 74.195312 C 808.644531 75.257812 805.988281 75.789062 803.207031 75.789062 Z M 803.207031 75.789062 " fill-opacity="1" fill-rule="nonzero"/><path fill="#23387a" d="M 1280.585938 128.609375 C 1269.03125 128.609375 1259.671875 137.964844 1259.671875 149.519531 C 1259.671875 161.074219 1269.03125 170.429688 1280.585938 170.429688 C 1292.144531 170.429688 1301.503906 161.074219 1301.503906 149.519531 C 1301.503906 137.964844 1292.121094 128.609375 1280.585938 128.609375 Z M 1280.585938 164.792969 C 1272.164062 164.792969 1265.335938 157.964844 1265.335938 149.519531 C 1265.335938 141.101562 1272.164062 134.273438 1280.585938 134.273438 C 1289.011719 134.273438 1295.839844 141.101562 1295.839844 149.519531 C 1295.839844 157.941406 1289.011719 164.792969 1280.585938 164.792969 Z M 1280.585938 164.792969 " fill-opacity="1" fill-rule="nonzero"/><path fill="#23387a" d="M 702.242188 138.496094 C 703.683594 127.015625 695.589844 116.546875 684.132812 115.082031 C 672.652344 113.640625 662.179688 121.730469 660.738281 133.210938 C 659.273438 144.664062 667.363281 155.132812 678.847656 156.601562 C 690.28125 158.042969 700.75 149.949219 702.242188 138.496094 Z M 666.328125 133.894531 C 667.414062 125.550781 675.054688 119.632812 683.425781 120.695312 C 691.773438 121.78125 697.691406 129.417969 696.628906 137.761719 C 695.566406 146.132812 687.902344 152.023438 679.554688 150.960938 C 671.183594 149.925781 665.265625 142.261719 666.328125 133.894531 Z M 666.328125 133.894531 " fill-opacity="1" fill-rule="nonzero"/></svg>